<?xml version="1.0" encoding="UTF-8"?>
<svg xmlns="http://www.w3.org/2000/svg" viewBox="0 0 288 256" role="img" aria-labelledby="title description">
  <title id="title">BunkFy logo mark</title>
  <desc id="description">A black geometric letter B formed from two stacked rounded bunks, matching pillow shapes, a simple blanket fold, and two pieces of luggage overlapping the lower rail on a forest-green background.</desc>

  <defs>
    <path id="case-shape" d="M184 171V157H200V171M179 171H205C209 171 212 174 212 178V215C212 220 209 223 204 223H180C175 223 172 220 172 215V179C172 174 175 171 179 171Z"/>
    <path id="small-case-shape" d="M141 190H158C162 190 164 193 164 197V216C164 220 161 223 157 223H142C138 223 135 220 135 216V197C135 193 138 190 141 190Z"/>
    <mask id="case-cutout" maskUnits="userSpaceOnUse">
      <rect width="288" height="256" fill="#FFFFFF"/>
      <use href="#case-shape" fill="#000000" stroke="#000000" stroke-width="16"/>
      <use href="#small-case-shape" fill="#000000" stroke="#000000" stroke-width="16"/>
    </mask>
  </defs>
  <rect width="288" height="256" rx="30" fill="#084F39"/>
  <g fill="none" stroke="#0B0F0C" stroke-width="12" stroke-linecap="round" stroke-linejoin="round" mask="url(#case-cutout)">
    <path d="M48 220V36"/>
    <path d="M48 36H166C204 36 226 53.5 226 80.5C226 108.5 204 125 166 125H48"/>
    <path d="M48 125H173C213 125 236 143.5 236 172.5C236 202.5 212.5 220 173 220H48"/>
    <path d="M70 84L99 108M70 179L99 203"/>
    <path d="M137 104H171C181 104 188 109.5 188 117"/>
  </g>
  <use href="#small-case-shape" fill="none" stroke="#0B0F0C" stroke-width="12" stroke-linecap="round" stroke-linejoin="round"/>
  <use href="#case-shape" fill="none" stroke="#0B0F0C" stroke-width="12" stroke-linecap="round" stroke-linejoin="round"/>
</svg>
